<?xml version="1.0" standalone="no"?>
<!DOCTYPE svg PUBLIC "-//W3C//DTD SVG 20010904//EN"
 "http://www.w3.org/TR/2001/REC-SVG-20010904/DTD/svg10.dtd">
<svg version="1.0" xmlns="http://www.w3.org/2000/svg"
 width="512.000000pt" height="512.000000pt" viewBox="0 0 512.000000 512.000000"
 preserveAspectRatio="xMidYMid meet">

<g transform="translate(0.000000,512.000000) scale(0.100000,-0.100000)"
fill="#000000" stroke="none">
<path d="M131 4624 c-59 -30 -105 -85 -121 -144 -7 -25 -9 -688 -8 -1947 l3
-1910 30 -48 c22 -36 45 -57 84 -77 l53 -28 1947 0 c1231 0 1959 4 1980 10 46
13 94 47 118 84 30 45 903 2447 903 2484 0 44 -27 121 -57 160 -48 64 -87 75
-280 80 l-173 4 0 273 c0 296 -5 336 -55 402 -15 19 -51 46 -79 59 l-51 24
-1080 0 -1080 0 -214 300 -214 300 -827 0 -826 0 -53 -26z m1831 -444 l213
-300 1111 0 c942 0 1113 -2 1130 -14 18 -14 19 -31 22 -295 l3 -281 -1698 -2
c-1611 -3 -1700 -4 -1738 -21 -53 -24 -94 -63 -116 -112 -9 -22 -173 -465
-364 -985 -191 -520 -348 -947 -351 -949 -2 -2 -4 721 -4 1607 0 1599 0 1612
20 1632 20 20 33 20 789 20 l769 0 214 -300z m2977 -1101 c10 -29 -24 -127
-420 -1213 -237 -649 -437 -1191 -445 -1203 l-14 -23 -1929 0 c-1904 0 -1928
0 -1946 20 -9 10 -15 27 -13 37 15 54 871 2390 880 2401 8 9 409 12 1943 12
l1933 0 11 -31z"/>
</g>
</svg>
