<?xml version="1.0" standalone="no"?>
<!DOCTYPE svg PUBLIC "-//W3C//DTD SVG 20010904//EN"
 "http://www.w3.org/TR/2001/REC-SVG-20010904/DTD/svg10.dtd">
<svg version="1.0" xmlns="http://www.w3.org/2000/svg"
 width="512.000000pt" height="512.000000pt" viewBox="0 0 512.000000 512.000000"
 preserveAspectRatio="xMidYMid meet">

<g transform="translate(0.000000,512.000000) scale(0.100000,-0.100000)"
fill="#000000" stroke="none">
<path d="M282 4874 l-22 -15 0 -933 0 -933 21 -19 c20 -18 50 -19 944 -19 894
0 924 1 944 19 l21 19 0 929 c0 915 0 928 -20 948 -20 20 -33 20 -943 20 -819
0 -925 -2 -945 -16z m1768 -954 l0 -830 -827 2 -828 3 -3 828 -2 827 830 0
830 0 0 -830z"/>
<path d="M3882 4873 c-18 -16 -974 -1740 -1007 -1817 -19 -45 -2 -83 43 -96
25 -8 352 -10 1030 -8 l994 3 19 24 c10 13 19 33 19 45 0 25 -993 1836 -1017
1854 -24 17 -57 15 -81 -5z m483 -996 c235 -428 425 -780 423 -783 -3 -2 -394
-3 -871 -2 l-865 3 426 775 c235 426 431 781 436 788 4 8 12 10 16 5 4 -4 200
-358 435 -786z"/>
<path d="M668 2123 c-36 -40 -528 -858 -528 -876 0 -27 506 -997 532 -1019 19
-17 60 -18 553 -18 493 0 534 1 553 18 27 24 532 923 532 948 0 20 -498 913
-528 947 -14 16 -53 17 -557 17 -504 0 -543 -1 -557 -17z m1259 -528 c128
-225 231 -415 230 -421 -1 -6 -105 -194 -231 -418 l-230 -406 -470 0 -471 0
-232 444 c-128 244 -233 446 -233 448 0 7 424 700 452 741 l20 27 466 -2 466
-3 233 -410z"/>
<path d="M3731 2125 c-325 -71 -587 -289 -704 -586 -122 -309 -82 -658 108
-924 58 -82 168 -188 256 -246 247 -165 577 -204 862 -103 176 63 344 191 459
350 53 73 125 226 149 319 29 113 36 285 15 401 -36 209 -121 371 -275 525
-141 140 -296 225 -483 263 -95 20 -298 20 -387 1z m399 -146 c148 -37 332
-151 421 -260 135 -166 198 -337 199 -541 0 -256 -110 -488 -307 -646 -86 -69
-153 -106 -263 -143 -82 -28 -112 -33 -225 -37 -161 -5 -265 16 -400 83 -166
82 -290 206 -371 370 -64 131 -86 224 -87 370 -1 234 76 420 242 585 215 213
501 292 791 219z"/>
</g>
</svg>
