<?xml version="1.0" standalone="no"?>
<!DOCTYPE svg PUBLIC "-//W3C//DTD SVG 20010904//EN"
 "http://www.w3.org/TR/2001/REC-SVG-20010904/DTD/svg10.dtd">
<svg version="1.0" xmlns="http://www.w3.org/2000/svg"
 width="512.000000pt" height="512.000000pt" viewBox="0 0 512.000000 512.000000"
 preserveAspectRatio="xMidYMid meet">

<g transform="translate(0.000000,512.000000) scale(0.100000,-0.100000)"
fill="#4D4D4E" stroke="none">
<path d="M466 4949 c-62 -15 -153 -68 -197 -116 -22 -24 -55 -74 -72 -111
l-32 -67 0 -2096 0 -2095 37 -76 c45 -91 103 -147 196 -191 l67 -32 2096 0
2095 0 76 37 c91 45 147 103 191 196 l32 67 3 1905 2 1904 -343 343 -342 343
-1885 -1 c-1096 -1 -1901 -5 -1924 -10z m654 -805 c0 -486 3 -667 12 -698 16
-55 99 -138 154 -154 32 -9 336 -12 1276 -12 1397 0 1294 -6 1371 80 24 26 49
66 55 88 9 29 12 218 12 696 l0 656 103 0 102 0 298 -298 297 -297 0 -1839 c0
-1414 -3 -1848 -12 -1880 -16 -55 -99 -138 -154 -154 -23 -7 -67 -12 -97 -12
l-57 0 -2 1047 -3 1048 -32 67 c-44 93 -100 151 -191 196 l-76 37 -1616 0
-1616 0 -76 -37 c-91 -45 -147 -103 -191 -196 l-32 -67 -3 -1048 -2 -1047 -57
0 c-30 0 -74 5 -97 12 -55 16 -138 99 -154 154 -18 60 -18 4088 0 4148 15 51
99 137 148 153 22 7 148 11 338 12 l302 1 0 -656z m2720 1 l0 -656 -25 -24
-24 -25 -1231 0 -1231 0 -24 25 -25 24 0 656 0 655 1280 0 1280 0 0 -655z
m314 -1597 c55 -16 138 -99 154 -154 9 -31 12 -289 12 -1058 l0 -1016 -1760 0
-1760 0 0 1016 c0 769 3 1027 12 1058 15 51 99 137 148 153 53 17 3138 17
3194 1z"/>
<path d="M3065 4615 l-25 -24 0 -471 0 -471 25 -24 24 -25 271 0 271 0 24 25
25 24 0 471 0 471 -25 24 -24 25 -271 0 -271 0 -24 -25z m455 -495 l0 -360
-160 0 -160 0 0 360 0 360 160 0 160 0 0 -360z"/>
<path d="M1305 1975 c-16 -15 -25 -36 -25 -55 0 -19 9 -40 25 -55 l24 -25
1231 0 1231 0 24 25 c33 32 33 78 0 110 l-24 25 -1231 0 -1231 0 -24 -25z"/>
<path d="M1305 1495 c-16 -15 -25 -36 -25 -55 0 -19 9 -40 25 -55 l24 -25
1231 0 1231 0 24 25 c33 32 33 78 0 110 l-24 25 -1231 0 -1231 0 -24 -25z"/>
<path d="M1305 1015 c-16 -15 -25 -36 -25 -55 0 -19 9 -40 25 -55 l24 -25
1231 0 1231 0 24 25 c33 32 33 78 0 110 l-24 25 -1231 0 -1231 0 -24 -25z"/>
</g>
</svg>
