<svg width="223" height="291" viewBox="0 0 223 291" fill="none" xmlns="http://www.w3.org/2000/svg">
<path d="M109 26L20 74.67" stroke="black"/>
<line x1="201.253" y1="175.101" x2="109.253" y2="229.101" stroke="black"/>
<line x1="108.744" y1="228.1" x2="19.7442" y2="175.1" stroke="black"/>
<line x1="200.5" y1="74.67" x2="200.5" y2="174.67" stroke="black"/>
<line x1="199.768" y1="74.1129" x2="108.768" y2="26.4429" stroke="black"/>
<line x1="20.5" y1="74.67" x2="20.5" y2="174.67" stroke="black"/>
<line x1="108.5" y1="26" x2="108.5" y2="75" stroke="black"/>
<line x1="20" y1="74.17" x2="201" y2="74.17" stroke="black"/>
<line x1="20.2398" y1="74.2312" x2="108.201" y2="122.303" stroke="black"/>
<line x1="107.771" y1="122.226" x2="200.771" y2="74.2257" stroke="black"/>
<line x1="108.5" y1="121.665" x2="109.491" y2="228.665" stroke="black"/>
<line x1="20.4329" y1="74.4198" x2="109.433" y2="228.42" stroke="black"/>
<line x1="19.7886" y1="174.217" x2="64.7886" y2="153.217" stroke="black"/>
<line x1="200.43" y1="73.9243" x2="109.43" y2="227.924" stroke="black"/>
<line x1="200.761" y1="175.109" x2="154.761" y2="150.109" stroke="black"/>
<path d="M41.9004 246.76C41.5098 246.714 41.1126 246.672 40.709 246.633C40.3053 246.587 39.918 246.551 39.5469 246.525C39.1823 246.493 38.847 246.47 38.541 246.457C38.235 246.438 37.9876 246.424 37.7988 246.418C37.7728 247.108 37.75 247.749 37.7305 248.342C37.7174 248.596 37.7077 248.85 37.7012 249.104C37.6947 249.357 37.6882 249.595 37.6816 249.816C37.6751 250.038 37.6686 250.236 37.6621 250.412C37.6621 250.581 37.6621 250.712 37.6621 250.803C37.6621 251.122 37.6849 251.379 37.7305 251.574C37.776 251.77 37.8411 251.923 37.9258 252.033C38.0169 252.144 38.1276 252.225 38.2578 252.277C38.3945 252.323 38.5475 252.359 38.7168 252.385L39.1367 252.443V253C38.974 252.98 38.7852 252.958 38.5703 252.932C38.388 252.919 38.1667 252.906 37.9062 252.893C37.6523 252.873 37.3626 252.863 37.0371 252.863C36.7051 252.863 36.3405 252.873 35.9434 252.893C35.5462 252.912 35.1035 252.948 34.6152 253V252.443C34.7845 252.43 34.9342 252.417 35.0645 252.404C35.1947 252.391 35.3151 252.378 35.4258 252.365C35.5365 252.352 35.6439 252.342 35.748 252.336C35.8522 252.329 35.9629 252.323 36.0801 252.316C36.1257 250.995 36.1647 249.829 36.1973 248.82C36.2298 247.811 36.2591 246.932 36.2852 246.184C36.3112 245.435 36.334 244.8 36.3535 244.279C36.373 243.758 36.3861 243.329 36.3926 242.99C36.4056 242.645 36.4154 242.378 36.4219 242.189C36.4284 241.994 36.4316 241.848 36.4316 241.75C36.4382 241.652 36.4414 241.59 36.4414 241.564C36.4414 241.532 36.4414 241.509 36.4414 241.496C36.4414 241.203 36.4219 240.969 36.3828 240.793C36.3503 240.611 36.2949 240.471 36.2168 240.373C36.1387 240.269 36.0378 240.194 35.9141 240.148C35.7904 240.103 35.6406 240.067 35.4648 240.041L35.0645 239.982V239.416C35.2467 239.442 35.4779 239.468 35.7578 239.494C35.9987 239.514 36.3014 239.53 36.666 239.543C37.0306 239.556 37.4766 239.562 38.0039 239.562H40.3574C40.6178 239.562 40.8717 239.562 41.1191 239.562C41.3665 239.556 41.6172 239.549 41.8711 239.543C42.125 239.53 42.3887 239.514 42.6621 239.494C42.9355 239.475 43.2285 239.449 43.541 239.416L43.2383 242.717H42.6426C42.6556 242.587 42.6621 242.486 42.6621 242.414C42.6621 242.336 42.6621 242.251 42.6621 242.16C42.6621 241.945 42.6393 241.74 42.5938 241.545C42.5482 241.343 42.4505 241.164 42.3008 241.008C42.151 240.845 41.9329 240.708 41.6465 240.598C41.36 240.487 40.9792 240.415 40.5039 240.383L38.082 240.217C38.0299 240.751 37.9909 241.294 37.9648 241.848C37.9388 242.395 37.916 242.899 37.8965 243.361L37.8184 245.744L41.998 245.52L41.9004 246.76ZM48.7852 244.797C48.3034 244.797 47.877 244.904 47.5059 245.119C47.1348 245.334 46.8223 245.62 46.5684 245.979C46.321 246.337 46.1322 246.75 46.002 247.219C45.8717 247.681 45.8066 248.163 45.8066 248.664C45.8066 249.139 45.8652 249.611 45.9824 250.08C46.0996 250.549 46.2786 250.972 46.5195 251.35C46.7669 251.721 47.0794 252.023 47.457 252.258C47.8411 252.486 48.2969 252.6 48.8242 252.6C49.293 252.6 49.7096 252.512 50.0742 252.336C50.4388 252.16 50.748 251.91 51.002 251.584C51.2559 251.258 51.4479 250.861 51.5781 250.393C51.7148 249.924 51.7832 249.4 51.7832 248.82C51.7832 248.391 51.7246 247.941 51.6074 247.473C51.4902 246.997 51.3079 246.561 51.0605 246.164C50.8197 245.767 50.5104 245.441 50.1328 245.188C49.7552 244.927 49.306 244.797 48.7852 244.797ZM44.3711 249.182C44.3711 248.563 44.4818 247.958 44.7031 247.365C44.9245 246.773 45.2435 246.245 45.6602 245.783C46.0768 245.321 46.5846 244.95 47.1836 244.67C47.7826 244.383 48.4629 244.24 49.2246 244.24C49.9473 244.24 50.5625 244.341 51.0703 244.543C51.5781 244.745 51.9915 245.021 52.3105 245.373C52.6296 245.718 52.8607 246.122 53.0039 246.584C53.1536 247.046 53.2285 247.538 53.2285 248.059C53.2285 248.762 53.1048 249.426 52.8574 250.051C52.61 250.676 52.2682 251.223 51.832 251.691C51.3958 252.154 50.8848 252.521 50.2988 252.795C49.7129 253.062 49.0814 253.195 48.4043 253.195C47.623 253.195 46.972 253.085 46.4512 252.863C45.9368 252.635 45.5234 252.336 45.2109 251.965C44.9049 251.594 44.6868 251.167 44.5566 250.686C44.4329 250.204 44.3711 249.702 44.3711 249.182ZM57.4473 244.24C57.4212 244.364 57.3919 244.507 57.3594 244.67C57.3333 244.826 57.304 244.989 57.2715 245.158C57.2454 245.327 57.2194 245.497 57.1934 245.666C57.1673 245.829 57.1445 245.979 57.125 246.115C57.4635 245.77 57.7923 245.48 58.1113 245.246C58.4303 245.005 58.7266 244.81 59 244.66C59.2734 244.51 59.5176 244.403 59.7324 244.338C59.9538 244.273 60.1393 244.24 60.2891 244.24C60.4714 244.24 60.6211 244.266 60.7383 244.318C60.8555 244.364 60.9466 244.426 61.0117 244.504C61.0833 244.576 61.1322 244.657 61.1582 244.748C61.1908 244.839 61.207 244.924 61.207 245.002C61.207 245.191 61.1549 245.373 61.0508 245.549C60.9531 245.725 60.8392 245.881 60.709 246.018C60.5462 245.829 60.3672 245.695 60.1719 245.617C59.9766 245.539 59.7682 245.5 59.5469 245.5C59.3581 245.5 59.1628 245.529 58.9609 245.588C58.7656 245.64 58.5703 245.715 58.375 245.812C58.1797 245.91 57.9844 246.027 57.7891 246.164C57.6003 246.294 57.4245 246.441 57.2617 246.604C57.2227 247.261 57.1771 247.902 57.125 248.527C57.0794 249.152 57.0566 249.803 57.0566 250.48C57.0566 250.923 57.0697 251.281 57.0957 251.555C57.1217 251.822 57.1771 252.03 57.2617 252.18C57.3464 252.323 57.4701 252.421 57.6328 252.473C57.8021 252.518 58.0299 252.541 58.3164 252.541H58.7559V253H58.5703C57.9583 253 57.4115 253.023 56.9297 253.068C56.4479 253.114 55.9727 253.199 55.5039 253.322C55.6602 252.274 55.7839 251.226 55.875 250.178C55.9661 249.123 56.0117 248.091 56.0117 247.082C56.0117 246.77 55.9922 246.499 55.9531 246.271C55.9206 246.037 55.849 245.842 55.7383 245.686C55.6276 245.529 55.4681 245.412 55.2598 245.334C55.0514 245.256 54.778 245.217 54.4395 245.217H54.2246V244.758C54.5371 244.732 54.8138 244.712 55.0547 244.699C55.2956 244.68 55.5332 244.657 55.7676 244.631C56.0085 244.598 56.2591 244.553 56.5195 244.494C56.7865 244.436 57.0957 244.351 57.4473 244.24ZM76.7051 253C76.3665 253.013 76.0508 253.023 75.7578 253.029C75.4648 253.042 75.1849 253.059 74.918 253.078C74.651 253.098 74.3906 253.124 74.1367 253.156C73.8893 253.195 73.6387 253.251 73.3848 253.322C73.4434 252.945 73.5052 252.518 73.5703 252.043C73.6354 251.568 73.694 251.089 73.7461 250.607C73.7982 250.119 73.8405 249.644 73.873 249.182C73.9056 248.719 73.9219 248.312 73.9219 247.961C73.9219 247.622 73.8991 247.29 73.8535 246.965C73.8079 246.639 73.7266 246.35 73.6094 246.096C73.4922 245.835 73.3294 245.627 73.1211 245.471C72.9128 245.314 72.6426 245.236 72.3105 245.236C72.0892 245.236 71.8711 245.279 71.6562 245.363C71.4414 245.448 71.2331 245.555 71.0312 245.686C70.8294 245.809 70.6374 245.952 70.4551 246.115C70.2728 246.271 70.1035 246.421 69.9473 246.564V246.857C69.9473 247.222 69.931 247.603 69.8984 248C69.8724 248.397 69.8398 248.791 69.8008 249.182C69.7682 249.566 69.7357 249.94 69.7031 250.305C69.6771 250.663 69.6641 250.988 69.6641 251.281C69.6641 251.535 69.6836 251.743 69.7227 251.906C69.7682 252.069 69.8366 252.199 69.9277 252.297C70.0254 252.388 70.1491 252.453 70.2988 252.492C70.4486 252.525 70.6309 252.541 70.8457 252.541H71.3828V253C71.0443 253.013 70.7285 253.023 70.4355 253.029C70.1426 253.042 69.8626 253.059 69.5957 253.078C69.3288 253.098 69.0684 253.124 68.8145 253.156C68.5671 253.195 68.3164 253.251 68.0625 253.322C68.1211 252.945 68.1829 252.518 68.248 252.043C68.3132 251.568 68.3717 251.089 68.4238 250.607C68.4824 250.119 68.528 249.644 68.5605 249.182C68.5931 248.719 68.6094 248.312 68.6094 247.961C68.6094 247.622 68.5866 247.29 68.541 246.965C68.502 246.639 68.4206 246.35 68.2969 246.096C68.1797 245.835 68.0137 245.627 67.7988 245.471C67.5905 245.314 67.3203 245.236 66.9883 245.236C66.7604 245.236 66.5326 245.282 66.3047 245.373C66.0833 245.464 65.8685 245.581 65.6602 245.725C65.4583 245.861 65.263 246.014 65.0742 246.184C64.8854 246.346 64.7096 246.499 64.5469 246.643C64.5208 246.955 64.498 247.284 64.4785 247.629C64.459 247.967 64.4395 248.306 64.4199 248.645C64.4069 248.983 64.3939 249.312 64.3809 249.631C64.3743 249.95 64.3711 250.246 64.3711 250.52C64.3711 250.943 64.3809 251.285 64.4004 251.545C64.4199 251.805 64.4688 252.01 64.5469 252.16C64.625 252.31 64.7422 252.411 64.8984 252.463C65.0612 252.515 65.2826 252.541 65.5625 252.541H66.0703V253H65.8848C65.2728 253 64.7129 253.023 64.2051 253.068C63.7038 253.114 63.2188 253.199 62.75 253.322C62.8997 252.372 63.0169 251.395 63.1016 250.393C63.1862 249.383 63.2285 248.352 63.2285 247.297C63.2285 247.043 63.2155 246.792 63.1895 246.545C63.1699 246.298 63.1081 246.079 63.0039 245.891C62.8997 245.695 62.7402 245.539 62.5254 245.422C62.3105 245.298 62.0111 245.236 61.627 245.236H61.4512V244.758C61.7441 244.745 62.0111 244.732 62.252 244.719C62.4993 244.699 62.7435 244.673 62.9844 244.641C63.2318 244.602 63.4889 244.553 63.7559 244.494C64.0228 244.429 64.3255 244.344 64.6641 244.24C64.6055 244.533 64.5436 244.846 64.4785 245.178C64.4199 245.503 64.3743 245.803 64.3418 246.076C64.6738 245.77 64.9831 245.503 65.2695 245.275C65.5625 245.048 65.8457 244.859 66.1191 244.709C66.3991 244.553 66.679 244.436 66.959 244.357C67.2389 244.279 67.5352 244.24 67.8477 244.24C68.0234 244.24 68.2122 244.263 68.4141 244.309C68.6159 244.354 68.8112 244.439 69 244.562C69.1888 244.68 69.3581 244.849 69.5078 245.07C69.6576 245.285 69.7715 245.568 69.8496 245.92C70.1621 245.64 70.4551 245.396 70.7285 245.188C71.002 244.973 71.2689 244.797 71.5293 244.66C71.7962 244.517 72.0632 244.413 72.3301 244.348C72.597 244.276 72.8835 244.24 73.1895 244.24C73.3913 244.24 73.6126 244.273 73.8535 244.338C74.0944 244.396 74.319 244.52 74.5273 244.709C74.7357 244.898 74.9115 245.165 75.0547 245.51C75.1979 245.848 75.2695 246.298 75.2695 246.857C75.2695 247.222 75.2533 247.603 75.2207 248C75.1947 248.397 75.1621 248.791 75.123 249.182C75.0905 249.566 75.0579 249.94 75.0254 250.305C74.9993 250.663 74.9863 250.988 74.9863 251.281C74.9863 251.535 75.0059 251.743 75.0449 251.906C75.0905 252.069 75.1589 252.199 75.25 252.297C75.3477 252.388 75.4714 252.453 75.6211 252.492C75.7708 252.525 75.9531 252.541 76.168 252.541H76.7051V253ZM77.5059 251.477C77.5059 251.092 77.6035 250.76 77.7988 250.48C78.0007 250.201 78.2578 249.96 78.5703 249.758C78.8893 249.556 79.2441 249.39 79.6348 249.26C80.0254 249.13 80.416 249.025 80.8066 248.947C81.1973 248.869 81.5651 248.814 81.9102 248.781C82.2617 248.742 82.5482 248.716 82.7695 248.703C82.8021 248.41 82.8216 248.127 82.8281 247.854C82.8411 247.58 82.8477 247.323 82.8477 247.082C82.8477 246.776 82.8249 246.483 82.7793 246.203C82.7337 245.923 82.6458 245.676 82.5156 245.461C82.3854 245.246 82.2031 245.077 81.9688 244.953C81.7409 244.823 81.4414 244.758 81.0703 244.758C80.8099 244.758 80.569 244.807 80.3477 244.904C80.1263 245.002 79.9342 245.135 79.7715 245.305C79.6152 245.467 79.4915 245.663 79.4004 245.891C79.3158 246.112 79.2734 246.35 79.2734 246.604C79.2734 246.701 79.2799 246.802 79.293 246.906C79.3125 247.004 79.3385 247.108 79.3711 247.219C79.2995 247.303 79.1986 247.368 79.0684 247.414C78.9447 247.46 78.8177 247.482 78.6875 247.482C78.5898 247.482 78.4954 247.469 78.4043 247.443C78.3132 247.411 78.2318 247.362 78.1602 247.297C78.0885 247.232 78.0299 247.147 77.9844 247.043C77.9453 246.939 77.9258 246.812 77.9258 246.662C77.9258 246.298 78.0495 245.965 78.2969 245.666C78.5508 245.367 78.8665 245.113 79.2441 244.904C79.6283 244.689 80.0449 244.527 80.4941 244.416C80.9434 244.299 81.3698 244.24 81.7734 244.24C82.5417 244.24 83.1406 244.416 83.5703 244.768C84.0065 245.119 84.2246 245.702 84.2246 246.516C84.2246 246.867 84.2083 247.255 84.1758 247.678C84.1497 248.094 84.1172 248.508 84.0781 248.918C84.0391 249.328 84.0033 249.719 83.9707 250.09C83.9447 250.454 83.9316 250.757 83.9316 250.998C83.9316 251.408 83.9805 251.727 84.0781 251.955C84.1823 252.183 84.3385 252.297 84.5469 252.297C84.6706 252.297 84.7943 252.261 84.918 252.189C85.0417 252.111 85.1589 252.023 85.2695 251.926C85.3802 251.822 85.4779 251.717 85.5625 251.613C85.6471 251.503 85.7155 251.418 85.7676 251.359L86.1289 251.662C85.901 251.981 85.6895 252.242 85.4941 252.443C85.2988 252.639 85.1133 252.795 84.9375 252.912C84.7617 253.023 84.5924 253.098 84.4297 253.137C84.2669 253.176 84.1074 253.195 83.9512 253.195C83.7103 253.195 83.502 253.146 83.3262 253.049C83.1504 252.958 83.0039 252.834 82.8867 252.678C82.776 252.521 82.6882 252.342 82.623 252.141C82.5645 251.939 82.5319 251.73 82.5254 251.516C82.3952 251.73 82.2422 251.939 82.0664 252.141C81.8906 252.342 81.6855 252.521 81.4512 252.678C81.2168 252.834 80.9499 252.958 80.6504 253.049C80.3509 253.146 80.0156 253.195 79.6445 253.195C79.2018 253.195 78.8405 253.137 78.5605 253.02C78.2806 252.909 78.0625 252.769 77.9062 252.6C77.75 252.424 77.6426 252.235 77.584 252.033C77.5319 251.831 77.5059 251.646 77.5059 251.477ZM80.1523 252.482C80.569 252.482 80.9238 252.391 81.2168 252.209C81.5163 252.02 81.7637 251.773 81.959 251.467C82.1608 251.161 82.3203 250.812 82.4375 250.422C82.5612 250.025 82.6523 249.618 82.7109 249.201C82.4896 249.221 82.2422 249.243 81.9688 249.27C81.6953 249.296 81.4186 249.338 81.1387 249.396C80.8652 249.449 80.5951 249.523 80.3281 249.621C80.0677 249.712 79.8333 249.833 79.625 249.982C79.4232 250.132 79.2604 250.314 79.1367 250.529C79.013 250.738 78.9512 250.988 78.9512 251.281C78.9512 251.529 78.9902 251.73 79.0684 251.887C79.153 252.036 79.2572 252.157 79.3809 252.248C79.5046 252.339 79.6348 252.401 79.7715 252.434C79.9082 252.466 80.0352 252.482 80.1523 252.482ZM91.2363 246.838C91.2559 246.727 91.2721 246.62 91.2852 246.516C91.3047 246.405 91.3145 246.301 91.3145 246.203C91.3145 245.78 91.2038 245.441 90.9824 245.188C90.7676 244.927 90.4258 244.797 89.957 244.797C89.6966 244.797 89.4622 244.836 89.2539 244.914C89.0456 244.986 88.8665 245.087 88.7168 245.217C88.5736 245.34 88.4629 245.49 88.3848 245.666C88.3066 245.835 88.2676 246.014 88.2676 246.203C88.2676 246.49 88.3327 246.73 88.4629 246.926C88.5996 247.115 88.7721 247.281 88.9805 247.424C89.1888 247.567 89.4199 247.697 89.6738 247.814C89.9277 247.932 90.1784 248.055 90.4258 248.186C90.6667 248.316 90.9108 248.456 91.1582 248.605C91.4121 248.749 91.64 248.918 91.8418 249.113C92.0501 249.309 92.2161 249.533 92.3398 249.787C92.4701 250.041 92.5352 250.337 92.5352 250.676C92.5352 250.982 92.4733 251.285 92.3496 251.584C92.2259 251.883 92.0273 252.154 91.7539 252.395C91.4805 252.635 91.1257 252.831 90.6895 252.98C90.2533 253.124 89.7259 253.195 89.1074 253.195C88.7363 253.195 88.3945 253.163 88.082 253.098C87.776 253.033 87.5124 252.938 87.291 252.814C87.0697 252.691 86.8971 252.538 86.7734 252.355C86.6497 252.173 86.5879 251.968 86.5879 251.74C86.5879 251.389 86.7051 251.112 86.9395 250.91C87.1738 250.702 87.4701 250.591 87.8281 250.578V250.764C87.8281 251.356 87.9909 251.825 88.3164 252.17C88.6484 252.508 89.0879 252.678 89.6348 252.678C89.8366 252.678 90.0352 252.645 90.2305 252.58C90.4258 252.515 90.6016 252.417 90.7578 252.287C90.9141 252.157 91.0378 251.991 91.1289 251.789C91.2266 251.581 91.2754 251.337 91.2754 251.057C91.2754 250.777 91.2038 250.533 91.0605 250.324C90.9173 250.116 90.735 249.934 90.5137 249.777C90.2988 249.621 90.0645 249.484 89.8105 249.367C89.5566 249.243 89.319 249.126 89.0977 249.016L88.7559 248.84C88.502 248.71 88.2708 248.579 88.0625 248.449C87.8607 248.319 87.6882 248.176 87.5449 248.02C87.4017 247.857 87.291 247.671 87.2129 247.463C87.1348 247.248 87.0957 246.994 87.0957 246.701C87.0957 246.363 87.1445 246.07 87.2422 245.822C87.3464 245.568 87.4831 245.35 87.6523 245.168C87.8216 244.986 88.0169 244.836 88.2383 244.719C88.4596 244.595 88.6875 244.501 88.9219 244.436C89.1562 244.364 89.3906 244.315 89.625 244.289C89.8594 244.257 90.0742 244.24 90.2695 244.24C90.569 244.24 90.8587 244.27 91.1387 244.328C91.4251 244.38 91.679 244.465 91.9004 244.582C92.1217 244.699 92.2975 244.852 92.4277 245.041C92.5645 245.23 92.6328 245.458 92.6328 245.725C92.6328 245.868 92.6035 246.008 92.5449 246.145C92.4863 246.275 92.3984 246.392 92.2812 246.496C92.1706 246.6 92.0273 246.685 91.8516 246.75C91.6758 246.809 91.4707 246.838 91.2363 246.838ZM110.826 252.463C110.54 252.567 110.214 252.668 109.85 252.766C109.492 252.863 109.114 252.951 108.717 253.029C108.326 253.107 107.926 253.169 107.516 253.215C107.112 253.26 106.721 253.283 106.344 253.283C105.673 253.283 105.022 253.212 104.391 253.068C103.759 252.932 103.163 252.73 102.604 252.463C102.044 252.189 101.529 251.854 101.061 251.457C100.598 251.06 100.198 250.604 99.8594 250.09C99.5273 249.576 99.2669 249.003 99.0781 248.371C98.8958 247.74 98.8047 247.056 98.8047 246.32C98.8047 245.22 99.0033 244.227 99.4004 243.342C99.804 242.456 100.357 241.704 101.061 241.086C101.764 240.461 102.597 239.982 103.561 239.65C104.524 239.312 105.572 239.143 106.705 239.143C107.115 239.143 107.525 239.159 107.936 239.191C108.346 239.224 108.74 239.266 109.117 239.318C109.501 239.37 109.866 239.429 110.211 239.494C110.556 239.559 110.868 239.628 111.148 239.699L110.865 242.961H110.27V242.805C110.27 242.492 110.227 242.163 110.143 241.818C110.058 241.473 109.892 241.158 109.645 240.871C109.397 240.578 109.042 240.337 108.58 240.148C108.118 239.953 107.512 239.855 106.764 239.855C105.865 239.855 105.038 240.005 104.283 240.305C103.535 240.604 102.887 241.034 102.34 241.594C101.793 242.147 101.367 242.824 101.061 243.625C100.761 244.419 100.611 245.318 100.611 246.32C100.611 247.251 100.771 248.098 101.09 248.859C101.409 249.615 101.845 250.262 102.398 250.803C102.958 251.337 103.609 251.75 104.352 252.043C105.094 252.336 105.891 252.482 106.744 252.482C107.278 252.482 107.75 252.44 108.16 252.355C108.57 252.264 108.951 252.124 109.303 251.936C109.329 251.304 109.348 250.793 109.361 250.402C109.381 250.012 109.394 249.702 109.4 249.475C109.413 249.247 109.42 249.084 109.42 248.986C109.426 248.889 109.43 248.82 109.43 248.781C109.43 248.482 109.41 248.241 109.371 248.059C109.332 247.876 109.273 247.733 109.195 247.629C109.117 247.525 109.016 247.45 108.893 247.404C108.769 247.359 108.626 247.323 108.463 247.297L108.043 247.238V246.682C108.186 246.708 108.359 246.73 108.561 246.75C108.73 246.77 108.935 246.786 109.176 246.799C109.423 246.812 109.713 246.818 110.045 246.818C110.377 246.818 110.742 246.809 111.139 246.789C111.542 246.77 111.985 246.734 112.467 246.682V247.238C112.298 247.251 112.148 247.264 112.018 247.277C111.887 247.29 111.767 247.303 111.656 247.316C111.552 247.323 111.448 247.329 111.344 247.336C111.24 247.342 111.126 247.349 111.002 247.355L110.826 252.463ZM119.41 247.863C118.714 247.863 118.01 247.837 117.301 247.785C116.591 247.733 115.852 247.671 115.084 247.6C115.045 247.906 115.025 248.199 115.025 248.479C115.032 249.195 115.123 249.784 115.299 250.246C115.475 250.708 115.706 251.076 115.992 251.35C116.285 251.617 116.617 251.802 116.988 251.906C117.359 252.01 117.747 252.062 118.15 252.062C118.404 252.062 118.645 252.046 118.873 252.014C119.107 251.975 119.342 251.916 119.576 251.838C119.811 251.76 120.048 251.659 120.289 251.535C120.536 251.405 120.797 251.245 121.07 251.057L121.324 251.438C120.673 251.991 120.025 252.424 119.381 252.736C118.743 253.042 118.059 253.195 117.33 253.195C116.744 253.195 116.217 253.088 115.748 252.873C115.286 252.652 114.892 252.359 114.566 251.994C114.247 251.623 114 251.197 113.824 250.715C113.655 250.227 113.57 249.715 113.57 249.182C113.57 248.485 113.688 247.837 113.922 247.238C114.163 246.633 114.485 246.109 114.889 245.666C115.299 245.223 115.771 244.875 116.305 244.621C116.839 244.367 117.398 244.24 117.984 244.24C118.577 244.24 119.068 244.341 119.459 244.543C119.856 244.738 120.172 244.992 120.406 245.305C120.647 245.617 120.816 245.962 120.914 246.34C121.018 246.711 121.07 247.072 121.07 247.424C121.07 247.495 121.07 247.561 121.07 247.619C121.07 247.678 121.064 247.74 121.051 247.805C120.484 247.844 119.938 247.863 119.41 247.863ZM117.643 244.816C117.311 244.816 117.011 244.878 116.744 245.002C116.484 245.126 116.249 245.295 116.041 245.51C115.839 245.718 115.667 245.965 115.523 246.252C115.387 246.532 115.276 246.828 115.191 247.141C115.654 247.154 116.041 247.163 116.354 247.17C116.673 247.176 116.943 247.18 117.164 247.18H118.131C118.359 247.18 118.59 247.176 118.824 247.17C119.059 247.163 119.332 247.154 119.645 247.141V247.043C119.645 246.691 119.596 246.379 119.498 246.105C119.4 245.826 119.264 245.591 119.088 245.402C118.912 245.214 118.701 245.07 118.453 244.973C118.206 244.868 117.936 244.816 117.643 244.816ZM127.047 244.797C126.565 244.797 126.139 244.904 125.768 245.119C125.396 245.334 125.084 245.62 124.83 245.979C124.583 246.337 124.394 246.75 124.264 247.219C124.133 247.681 124.068 248.163 124.068 248.664C124.068 249.139 124.127 249.611 124.244 250.08C124.361 250.549 124.54 250.972 124.781 251.35C125.029 251.721 125.341 252.023 125.719 252.258C126.103 252.486 126.559 252.6 127.086 252.6C127.555 252.6 127.971 252.512 128.336 252.336C128.701 252.16 129.01 251.91 129.264 251.584C129.518 251.258 129.71 250.861 129.84 250.393C129.977 249.924 130.045 249.4 130.045 248.82C130.045 248.391 129.986 247.941 129.869 247.473C129.752 246.997 129.57 246.561 129.322 246.164C129.081 245.767 128.772 245.441 128.395 245.188C128.017 244.927 127.568 244.797 127.047 244.797ZM122.633 249.182C122.633 248.563 122.743 247.958 122.965 247.365C123.186 246.773 123.505 246.245 123.922 245.783C124.339 245.321 124.846 244.95 125.445 244.67C126.044 244.383 126.725 244.24 127.486 244.24C128.209 244.24 128.824 244.341 129.332 244.543C129.84 244.745 130.253 245.021 130.572 245.373C130.891 245.718 131.122 246.122 131.266 246.584C131.415 247.046 131.49 247.538 131.49 248.059C131.49 248.762 131.367 249.426 131.119 250.051C130.872 250.676 130.53 251.223 130.094 251.691C129.658 252.154 129.146 252.521 128.561 252.795C127.975 253.062 127.343 253.195 126.666 253.195C125.885 253.195 125.234 253.085 124.713 252.863C124.199 252.635 123.785 252.336 123.473 251.965C123.167 251.594 122.949 251.167 122.818 250.686C122.695 250.204 122.633 249.702 122.633 249.182ZM147.74 253C147.402 253.013 147.086 253.023 146.793 253.029C146.5 253.042 146.22 253.059 145.953 253.078C145.686 253.098 145.426 253.124 145.172 253.156C144.924 253.195 144.674 253.251 144.42 253.322C144.479 252.945 144.54 252.518 144.605 252.043C144.671 251.568 144.729 251.089 144.781 250.607C144.833 250.119 144.876 249.644 144.908 249.182C144.941 248.719 144.957 248.312 144.957 247.961C144.957 247.622 144.934 247.29 144.889 246.965C144.843 246.639 144.762 246.35 144.645 246.096C144.527 245.835 144.365 245.627 144.156 245.471C143.948 245.314 143.678 245.236 143.346 245.236C143.124 245.236 142.906 245.279 142.691 245.363C142.477 245.448 142.268 245.555 142.066 245.686C141.865 245.809 141.673 245.952 141.49 246.115C141.308 246.271 141.139 246.421 140.982 246.564V246.857C140.982 247.222 140.966 247.603 140.934 248C140.908 248.397 140.875 248.791 140.836 249.182C140.803 249.566 140.771 249.94 140.738 250.305C140.712 250.663 140.699 250.988 140.699 251.281C140.699 251.535 140.719 251.743 140.758 251.906C140.803 252.069 140.872 252.199 140.963 252.297C141.061 252.388 141.184 252.453 141.334 252.492C141.484 252.525 141.666 252.541 141.881 252.541H142.418V253C142.079 253.013 141.764 253.023 141.471 253.029C141.178 253.042 140.898 253.059 140.631 253.078C140.364 253.098 140.104 253.124 139.85 253.156C139.602 253.195 139.352 253.251 139.098 253.322C139.156 252.945 139.218 252.518 139.283 252.043C139.348 251.568 139.407 251.089 139.459 250.607C139.518 250.119 139.563 249.644 139.596 249.182C139.628 248.719 139.645 248.312 139.645 247.961C139.645 247.622 139.622 247.29 139.576 246.965C139.537 246.639 139.456 246.35 139.332 246.096C139.215 245.835 139.049 245.627 138.834 245.471C138.626 245.314 138.355 245.236 138.023 245.236C137.796 245.236 137.568 245.282 137.34 245.373C137.118 245.464 136.904 245.581 136.695 245.725C136.493 245.861 136.298 246.014 136.109 246.184C135.921 246.346 135.745 246.499 135.582 246.643C135.556 246.955 135.533 247.284 135.514 247.629C135.494 247.967 135.475 248.306 135.455 248.645C135.442 248.983 135.429 249.312 135.416 249.631C135.41 249.95 135.406 250.246 135.406 250.52C135.406 250.943 135.416 251.285 135.436 251.545C135.455 251.805 135.504 252.01 135.582 252.16C135.66 252.31 135.777 252.411 135.934 252.463C136.096 252.515 136.318 252.541 136.598 252.541H137.105V253H136.92C136.308 253 135.748 253.023 135.24 253.068C134.739 253.114 134.254 253.199 133.785 253.322C133.935 252.372 134.052 251.395 134.137 250.393C134.221 249.383 134.264 248.352 134.264 247.297C134.264 247.043 134.251 246.792 134.225 246.545C134.205 246.298 134.143 246.079 134.039 245.891C133.935 245.695 133.775 245.539 133.561 245.422C133.346 245.298 133.046 245.236 132.662 245.236H132.486V244.758C132.779 244.745 133.046 244.732 133.287 244.719C133.535 244.699 133.779 244.673 134.02 244.641C134.267 244.602 134.524 244.553 134.791 244.494C135.058 244.429 135.361 244.344 135.699 244.24C135.641 244.533 135.579 244.846 135.514 245.178C135.455 245.503 135.41 245.803 135.377 246.076C135.709 245.77 136.018 245.503 136.305 245.275C136.598 245.048 136.881 244.859 137.154 244.709C137.434 244.553 137.714 244.436 137.994 244.357C138.274 244.279 138.57 244.24 138.883 244.24C139.059 244.24 139.247 244.263 139.449 244.309C139.651 244.354 139.846 244.439 140.035 244.562C140.224 244.68 140.393 244.849 140.543 245.07C140.693 245.285 140.807 245.568 140.885 245.92C141.197 245.64 141.49 245.396 141.764 245.188C142.037 244.973 142.304 244.797 142.564 244.66C142.831 244.517 143.098 244.413 143.365 244.348C143.632 244.276 143.919 244.24 144.225 244.24C144.426 244.24 144.648 244.273 144.889 244.338C145.13 244.396 145.354 244.52 145.562 244.709C145.771 244.898 145.947 245.165 146.09 245.51C146.233 245.848 146.305 246.298 146.305 246.857C146.305 247.222 146.288 247.603 146.256 248C146.23 248.397 146.197 248.791 146.158 249.182C146.126 249.566 146.093 249.94 146.061 250.305C146.035 250.663 146.021 250.988 146.021 251.281C146.021 251.535 146.041 251.743 146.08 251.906C146.126 252.069 146.194 252.199 146.285 252.297C146.383 252.388 146.507 252.453 146.656 252.492C146.806 252.525 146.988 252.541 147.203 252.541H147.74V253ZM154.527 247.863C153.831 247.863 153.128 247.837 152.418 247.785C151.708 247.733 150.969 247.671 150.201 247.6C150.162 247.906 150.143 248.199 150.143 248.479C150.149 249.195 150.24 249.784 150.416 250.246C150.592 250.708 150.823 251.076 151.109 251.35C151.402 251.617 151.734 251.802 152.105 251.906C152.477 252.01 152.864 252.062 153.268 252.062C153.521 252.062 153.762 252.046 153.99 252.014C154.225 251.975 154.459 251.916 154.693 251.838C154.928 251.76 155.165 251.659 155.406 251.535C155.654 251.405 155.914 251.245 156.188 251.057L156.441 251.438C155.79 251.991 155.143 252.424 154.498 252.736C153.86 253.042 153.176 253.195 152.447 253.195C151.861 253.195 151.334 253.088 150.865 252.873C150.403 252.652 150.009 252.359 149.684 251.994C149.365 251.623 149.117 251.197 148.941 250.715C148.772 250.227 148.688 249.715 148.688 249.182C148.688 248.485 148.805 247.837 149.039 247.238C149.28 246.633 149.602 246.109 150.006 245.666C150.416 245.223 150.888 244.875 151.422 244.621C151.956 244.367 152.516 244.24 153.102 244.24C153.694 244.24 154.186 244.341 154.576 244.543C154.973 244.738 155.289 244.992 155.523 245.305C155.764 245.617 155.934 245.962 156.031 246.34C156.135 246.711 156.188 247.072 156.188 247.424C156.188 247.495 156.188 247.561 156.188 247.619C156.188 247.678 156.181 247.74 156.168 247.805C155.602 247.844 155.055 247.863 154.527 247.863ZM152.76 244.816C152.428 244.816 152.128 244.878 151.861 245.002C151.601 245.126 151.367 245.295 151.158 245.51C150.956 245.718 150.784 245.965 150.641 246.252C150.504 246.532 150.393 246.828 150.309 247.141C150.771 247.154 151.158 247.163 151.471 247.17C151.79 247.176 152.06 247.18 152.281 247.18H153.248C153.476 247.18 153.707 247.176 153.941 247.17C154.176 247.163 154.449 247.154 154.762 247.141V247.043C154.762 246.691 154.713 246.379 154.615 246.105C154.518 245.826 154.381 245.591 154.205 245.402C154.029 245.214 153.818 245.07 153.57 244.973C153.323 244.868 153.053 244.816 152.76 244.816ZM152.359 241.623L154.811 237.922C154.993 238.104 155.188 238.267 155.396 238.41C155.611 238.553 155.823 238.677 156.031 238.781L152.818 241.936L152.359 241.623ZM159.039 244.436C159.052 244.006 159.065 243.563 159.078 243.107C159.098 242.645 159.107 242.163 159.107 241.662L160.562 241.34C160.504 241.763 160.452 242.242 160.406 242.775C160.367 243.303 160.328 243.856 160.289 244.436C160.934 244.436 161.48 244.416 161.93 244.377C162.385 244.338 162.763 244.292 163.062 244.24L162.623 245.178H161.988C161.676 245.178 161.38 245.178 161.1 245.178C160.82 245.178 160.527 245.171 160.221 245.158C160.188 245.594 160.159 246.027 160.133 246.457C160.107 246.88 160.084 247.29 160.064 247.688C160.045 248.078 160.029 248.446 160.016 248.791C160.009 249.136 160.006 249.439 160.006 249.699C160.006 250.122 160.025 250.48 160.064 250.773C160.11 251.066 160.182 251.304 160.279 251.486C160.377 251.669 160.507 251.802 160.67 251.887C160.833 251.965 161.038 252.004 161.285 252.004C161.565 252.004 161.865 251.923 162.184 251.76C162.503 251.59 162.783 251.35 163.023 251.037L163.346 251.398C163.131 251.652 162.91 251.89 162.682 252.111C162.454 252.326 162.216 252.515 161.969 252.678C161.728 252.834 161.48 252.958 161.227 253.049C160.973 253.146 160.712 253.195 160.445 253.195C160.094 253.195 159.804 253.13 159.576 253C159.355 252.876 159.179 252.704 159.049 252.482C158.919 252.261 158.827 252.001 158.775 251.701C158.73 251.402 158.707 251.076 158.707 250.725C158.707 250.048 158.743 249.247 158.814 248.322C158.886 247.391 158.954 246.317 159.02 245.1C158.746 245.08 158.473 245.057 158.199 245.031C157.926 244.999 157.63 244.956 157.311 244.904L157.35 244.436H159.039ZM167.018 244.24C166.992 244.364 166.962 244.507 166.93 244.67C166.904 244.826 166.874 244.989 166.842 245.158C166.816 245.327 166.79 245.497 166.764 245.666C166.738 245.829 166.715 245.979 166.695 246.115C167.034 245.77 167.363 245.48 167.682 245.246C168.001 245.005 168.297 244.81 168.57 244.66C168.844 244.51 169.088 244.403 169.303 244.338C169.524 244.273 169.71 244.24 169.859 244.24C170.042 244.24 170.191 244.266 170.309 244.318C170.426 244.364 170.517 244.426 170.582 244.504C170.654 244.576 170.702 244.657 170.729 244.748C170.761 244.839 170.777 244.924 170.777 245.002C170.777 245.191 170.725 245.373 170.621 245.549C170.523 245.725 170.41 245.881 170.279 246.018C170.117 245.829 169.938 245.695 169.742 245.617C169.547 245.539 169.339 245.5 169.117 245.5C168.928 245.5 168.733 245.529 168.531 245.588C168.336 245.64 168.141 245.715 167.945 245.812C167.75 245.91 167.555 246.027 167.359 246.164C167.171 246.294 166.995 246.441 166.832 246.604C166.793 247.261 166.747 247.902 166.695 248.527C166.65 249.152 166.627 249.803 166.627 250.48C166.627 250.923 166.64 251.281 166.666 251.555C166.692 251.822 166.747 252.03 166.832 252.18C166.917 252.323 167.04 252.421 167.203 252.473C167.372 252.518 167.6 252.541 167.887 252.541H168.326V253H168.141C167.529 253 166.982 253.023 166.5 253.068C166.018 253.114 165.543 253.199 165.074 253.322C165.23 252.274 165.354 251.226 165.445 250.178C165.536 249.123 165.582 248.091 165.582 247.082C165.582 246.77 165.562 246.499 165.523 246.271C165.491 246.037 165.419 245.842 165.309 245.686C165.198 245.529 165.038 245.412 164.83 245.334C164.622 245.256 164.348 245.217 164.01 245.217H163.795V244.758C164.107 244.732 164.384 244.712 164.625 244.699C164.866 244.68 165.104 244.657 165.338 244.631C165.579 244.598 165.829 244.553 166.09 244.494C166.357 244.436 166.666 244.351 167.018 244.24ZM174.332 244.24C174.254 244.755 174.186 245.279 174.127 245.812C174.068 246.346 174.016 246.88 173.971 247.414C173.932 247.941 173.902 248.465 173.883 248.986C173.863 249.501 173.854 249.999 173.854 250.48C173.854 250.923 173.867 251.281 173.893 251.555C173.919 251.822 173.974 252.03 174.059 252.18C174.143 252.323 174.267 252.421 174.43 252.473C174.599 252.518 174.827 252.541 175.113 252.541H175.553V253H175.396C174.785 253 174.231 253.023 173.736 253.068C173.248 253.114 172.77 253.199 172.301 253.322C172.457 252.268 172.574 251.216 172.652 250.168C172.737 249.12 172.779 248.091 172.779 247.082C172.779 246.77 172.76 246.499 172.721 246.271C172.688 246.037 172.617 245.842 172.506 245.686C172.395 245.529 172.236 245.412 172.027 245.334C171.819 245.256 171.542 245.217 171.197 245.217H170.992V244.758C171.65 244.738 172.249 244.68 172.789 244.582C173.329 244.484 173.844 244.37 174.332 244.24ZM173.58 241.936C173.313 241.936 173.089 241.854 172.906 241.691C172.724 241.522 172.633 241.265 172.633 240.92C172.633 240.77 172.656 240.63 172.701 240.5C172.747 240.363 172.812 240.246 172.896 240.148C172.988 240.044 173.095 239.963 173.219 239.904C173.342 239.846 173.482 239.816 173.639 239.816C173.886 239.816 174.101 239.904 174.283 240.08C174.465 240.256 174.557 240.51 174.557 240.842C174.557 240.985 174.534 241.125 174.488 241.262C174.443 241.392 174.378 241.509 174.293 241.613C174.215 241.711 174.114 241.789 173.99 241.848C173.873 241.906 173.736 241.936 173.58 241.936ZM184.137 251.438C183.427 252.049 182.737 252.495 182.066 252.775C181.396 253.055 180.745 253.195 180.113 253.195C179.54 253.195 179.033 253.094 178.59 252.893C178.154 252.684 177.786 252.404 177.486 252.053C177.187 251.701 176.959 251.288 176.803 250.812C176.653 250.337 176.578 249.826 176.578 249.279C176.578 248.609 176.692 247.967 176.92 247.355C177.154 246.743 177.486 246.21 177.916 245.754C178.346 245.292 178.867 244.924 179.479 244.65C180.09 244.377 180.777 244.24 181.539 244.24C181.936 244.24 182.298 244.283 182.623 244.367C182.949 244.452 183.229 244.562 183.463 244.699C183.697 244.836 183.876 244.995 184 245.178C184.13 245.36 184.195 245.549 184.195 245.744C184.195 245.887 184.163 246.018 184.098 246.135C184.039 246.252 183.958 246.353 183.854 246.438C183.749 246.516 183.626 246.581 183.482 246.633C183.346 246.685 183.202 246.714 183.053 246.721C183.033 246.519 182.978 246.307 182.887 246.086C182.802 245.865 182.669 245.663 182.486 245.48C182.311 245.298 182.083 245.148 181.803 245.031C181.529 244.914 181.194 244.855 180.797 244.855C180.452 244.855 180.107 244.93 179.762 245.08C179.423 245.223 179.117 245.448 178.844 245.754C178.57 246.053 178.346 246.434 178.17 246.896C178.001 247.359 177.916 247.906 177.916 248.537C177.916 249.117 177.991 249.624 178.141 250.061C178.29 250.497 178.502 250.865 178.775 251.164C179.055 251.464 179.387 251.688 179.771 251.838C180.156 251.988 180.582 252.062 181.051 252.062C181.227 252.062 181.419 252.053 181.627 252.033C181.835 252.007 182.057 251.958 182.291 251.887C182.525 251.815 182.773 251.714 183.033 251.584C183.294 251.454 183.567 251.278 183.854 251.057L184.137 251.438ZM185.396 251.477C185.396 251.092 185.494 250.76 185.689 250.48C185.891 250.201 186.148 249.96 186.461 249.758C186.78 249.556 187.135 249.39 187.525 249.26C187.916 249.13 188.307 249.025 188.697 248.947C189.088 248.869 189.456 248.814 189.801 248.781C190.152 248.742 190.439 248.716 190.66 248.703C190.693 248.41 190.712 248.127 190.719 247.854C190.732 247.58 190.738 247.323 190.738 247.082C190.738 246.776 190.715 246.483 190.67 246.203C190.624 245.923 190.536 245.676 190.406 245.461C190.276 245.246 190.094 245.077 189.859 244.953C189.632 244.823 189.332 244.758 188.961 244.758C188.701 244.758 188.46 244.807 188.238 244.904C188.017 245.002 187.825 245.135 187.662 245.305C187.506 245.467 187.382 245.663 187.291 245.891C187.206 246.112 187.164 246.35 187.164 246.604C187.164 246.701 187.171 246.802 187.184 246.906C187.203 247.004 187.229 247.108 187.262 247.219C187.19 247.303 187.089 247.368 186.959 247.414C186.835 247.46 186.708 247.482 186.578 247.482C186.48 247.482 186.386 247.469 186.295 247.443C186.204 247.411 186.122 247.362 186.051 247.297C185.979 247.232 185.921 247.147 185.875 247.043C185.836 246.939 185.816 246.812 185.816 246.662C185.816 246.298 185.94 245.965 186.188 245.666C186.441 245.367 186.757 245.113 187.135 244.904C187.519 244.689 187.936 244.527 188.385 244.416C188.834 244.299 189.26 244.24 189.664 244.24C190.432 244.24 191.031 244.416 191.461 244.768C191.897 245.119 192.115 245.702 192.115 246.516C192.115 246.867 192.099 247.255 192.066 247.678C192.04 248.094 192.008 248.508 191.969 248.918C191.93 249.328 191.894 249.719 191.861 250.09C191.835 250.454 191.822 250.757 191.822 250.998C191.822 251.408 191.871 251.727 191.969 251.955C192.073 252.183 192.229 252.297 192.438 252.297C192.561 252.297 192.685 252.261 192.809 252.189C192.932 252.111 193.049 252.023 193.16 251.926C193.271 251.822 193.368 251.717 193.453 251.613C193.538 251.503 193.606 251.418 193.658 251.359L194.02 251.662C193.792 251.981 193.58 252.242 193.385 252.443C193.189 252.639 193.004 252.795 192.828 252.912C192.652 253.023 192.483 253.098 192.32 253.137C192.158 253.176 191.998 253.195 191.842 253.195C191.601 253.195 191.393 253.146 191.217 253.049C191.041 252.958 190.895 252.834 190.777 252.678C190.667 252.521 190.579 252.342 190.514 252.141C190.455 251.939 190.423 251.73 190.416 251.516C190.286 251.73 190.133 251.939 189.957 252.141C189.781 252.342 189.576 252.521 189.342 252.678C189.107 252.834 188.84 252.958 188.541 253.049C188.242 253.146 187.906 253.195 187.535 253.195C187.092 253.195 186.731 253.137 186.451 253.02C186.171 252.909 185.953 252.769 185.797 252.6C185.641 252.424 185.533 252.235 185.475 252.033C185.423 251.831 185.396 251.646 185.396 251.477ZM188.043 252.482C188.46 252.482 188.814 252.391 189.107 252.209C189.407 252.02 189.654 251.773 189.85 251.467C190.051 251.161 190.211 250.812 190.328 250.422C190.452 250.025 190.543 249.618 190.602 249.201C190.38 249.221 190.133 249.243 189.859 249.27C189.586 249.296 189.309 249.338 189.029 249.396C188.756 249.449 188.486 249.523 188.219 249.621C187.958 249.712 187.724 249.833 187.516 249.982C187.314 250.132 187.151 250.314 187.027 250.529C186.904 250.738 186.842 250.988 186.842 251.281C186.842 251.529 186.881 251.73 186.959 251.887C187.044 252.036 187.148 252.157 187.271 252.248C187.395 252.339 187.525 252.401 187.662 252.434C187.799 252.466 187.926 252.482 188.043 252.482ZM199.127 246.838C199.146 246.727 199.163 246.62 199.176 246.516C199.195 246.405 199.205 246.301 199.205 246.203C199.205 245.78 199.094 245.441 198.873 245.188C198.658 244.927 198.316 244.797 197.848 244.797C197.587 244.797 197.353 244.836 197.145 244.914C196.936 244.986 196.757 245.087 196.607 245.217C196.464 245.34 196.354 245.49 196.275 245.666C196.197 245.835 196.158 246.014 196.158 246.203C196.158 246.49 196.223 246.73 196.354 246.926C196.49 247.115 196.663 247.281 196.871 247.424C197.079 247.567 197.311 247.697 197.564 247.814C197.818 247.932 198.069 248.055 198.316 248.186C198.557 248.316 198.801 248.456 199.049 248.605C199.303 248.749 199.531 248.918 199.732 249.113C199.941 249.309 200.107 249.533 200.23 249.787C200.361 250.041 200.426 250.337 200.426 250.676C200.426 250.982 200.364 251.285 200.24 251.584C200.117 251.883 199.918 252.154 199.645 252.395C199.371 252.635 199.016 252.831 198.58 252.98C198.144 253.124 197.617 253.195 196.998 253.195C196.627 253.195 196.285 253.163 195.973 253.098C195.667 253.033 195.403 252.938 195.182 252.814C194.96 252.691 194.788 252.538 194.664 252.355C194.54 252.173 194.479 251.968 194.479 251.74C194.479 251.389 194.596 251.112 194.83 250.91C195.064 250.702 195.361 250.591 195.719 250.578V250.764C195.719 251.356 195.882 251.825 196.207 252.17C196.539 252.508 196.979 252.678 197.525 252.678C197.727 252.678 197.926 252.645 198.121 252.58C198.316 252.515 198.492 252.417 198.648 252.287C198.805 252.157 198.928 251.991 199.02 251.789C199.117 251.581 199.166 251.337 199.166 251.057C199.166 250.777 199.094 250.533 198.951 250.324C198.808 250.116 198.626 249.934 198.404 249.777C198.189 249.621 197.955 249.484 197.701 249.367C197.447 249.243 197.21 249.126 196.988 249.016L196.646 248.84C196.393 248.71 196.161 248.579 195.953 248.449C195.751 248.319 195.579 248.176 195.436 248.02C195.292 247.857 195.182 247.671 195.104 247.463C195.025 247.248 194.986 246.994 194.986 246.701C194.986 246.363 195.035 246.07 195.133 245.822C195.237 245.568 195.374 245.35 195.543 245.168C195.712 244.986 195.908 244.836 196.129 244.719C196.35 244.595 196.578 244.501 196.812 244.436C197.047 244.364 197.281 244.315 197.516 244.289C197.75 244.257 197.965 244.24 198.16 244.24C198.46 244.24 198.749 244.27 199.029 244.328C199.316 244.38 199.57 244.465 199.791 244.582C200.012 244.699 200.188 244.852 200.318 245.041C200.455 245.23 200.523 245.458 200.523 245.725C200.523 245.868 200.494 246.008 200.436 246.145C200.377 246.275 200.289 246.392 200.172 246.496C200.061 246.6 199.918 246.685 199.742 246.75C199.566 246.809 199.361 246.838 199.127 246.838Z" fill="black"/>
<path d="M148.531 275.52C148.531 275.762 148.494 275.986 148.42 276.193C148.346 276.4 148.248 276.592 148.127 276.768C148.01 276.939 147.877 277.096 147.729 277.236C147.58 277.373 147.432 277.49 147.283 277.588C147.607 277.674 147.887 277.785 148.121 277.922C148.355 278.059 148.549 278.217 148.701 278.396C148.854 278.576 148.965 278.775 149.035 278.994C149.109 279.209 149.146 279.439 149.146 279.686C149.146 279.986 149.092 280.279 148.982 280.564C148.877 280.85 148.715 281.104 148.496 281.326C148.281 281.549 148.012 281.729 147.688 281.865C147.367 282.002 146.992 282.07 146.562 282.07C146.406 282.07 146.25 282.062 146.094 282.047C145.938 282.035 145.781 282.02 145.625 282C145.469 281.984 145.311 281.969 145.15 281.953C144.99 281.938 144.83 281.93 144.67 281.93C144.482 281.93 144.281 281.936 144.066 281.947C143.855 281.959 143.615 281.977 143.346 282L143.357 281.666C143.459 281.658 143.549 281.65 143.627 281.643C143.705 281.635 143.777 281.627 143.844 281.619C143.91 281.611 143.975 281.605 144.037 281.602C144.1 281.598 144.166 281.594 144.236 281.59C144.275 280.406 144.311 279.346 144.342 278.408C144.354 278.01 144.365 277.617 144.377 277.23C144.393 276.844 144.406 276.498 144.418 276.193C144.43 275.889 144.438 275.639 144.441 275.443C144.449 275.248 144.453 275.141 144.453 275.121C144.453 274.941 144.441 274.797 144.418 274.688C144.395 274.574 144.357 274.486 144.307 274.424C144.256 274.361 144.193 274.316 144.119 274.289C144.045 274.262 143.959 274.24 143.861 274.225L143.609 274.189L143.621 273.85C143.715 273.865 143.82 273.881 143.938 273.896C144.039 273.908 144.156 273.918 144.289 273.926C144.422 273.934 144.568 273.938 144.729 273.938C144.896 273.938 145.043 273.93 145.168 273.914C145.297 273.898 145.426 273.883 145.555 273.867C145.684 273.848 145.824 273.83 145.977 273.814C146.129 273.799 146.316 273.791 146.539 273.791C146.898 273.791 147.205 273.84 147.459 273.938C147.713 274.035 147.918 274.164 148.074 274.324C148.234 274.484 148.35 274.668 148.42 274.875C148.494 275.082 148.531 275.297 148.531 275.52ZM145.268 277.822C145.252 278.338 145.236 278.803 145.221 279.217C145.213 279.393 145.207 279.568 145.203 279.744C145.199 279.92 145.193 280.08 145.186 280.225C145.182 280.365 145.178 280.486 145.174 280.588C145.174 280.686 145.174 280.748 145.174 280.775C145.174 280.939 145.191 281.082 145.227 281.203C145.262 281.32 145.322 281.42 145.408 281.502C145.498 281.58 145.617 281.639 145.766 281.678C145.918 281.717 146.111 281.736 146.346 281.736C146.408 281.736 146.498 281.73 146.615 281.719C146.732 281.707 146.859 281.682 146.996 281.643C147.133 281.6 147.271 281.537 147.412 281.455C147.553 281.373 147.68 281.262 147.793 281.121C147.91 280.98 148.004 280.807 148.074 280.6C148.148 280.389 148.186 280.135 148.186 279.838C148.186 279.549 148.141 279.279 148.051 279.029C147.965 278.779 147.828 278.562 147.641 278.379C147.457 278.195 147.221 278.051 146.932 277.945C146.646 277.84 146.305 277.787 145.906 277.787C145.695 277.787 145.482 277.799 145.268 277.822ZM145.613 277.406C145.812 277.406 146 277.414 146.176 277.43C146.355 277.441 146.527 277.457 146.691 277.477C146.824 277.383 146.945 277.275 147.055 277.154C147.168 277.033 147.266 276.902 147.348 276.762C147.43 276.617 147.492 276.463 147.535 276.299C147.582 276.135 147.605 275.963 147.605 275.783C147.605 275.525 147.57 275.297 147.5 275.098C147.43 274.898 147.332 274.73 147.207 274.594C147.082 274.457 146.936 274.354 146.768 274.283C146.6 274.213 146.416 274.178 146.217 274.178C146.104 274.178 145.988 274.18 145.871 274.184C145.754 274.184 145.617 274.193 145.461 274.213C145.449 274.326 145.436 274.469 145.42 274.641C145.408 274.809 145.395 274.992 145.379 275.191C145.363 275.391 145.35 275.598 145.338 275.812C145.326 276.023 145.318 276.227 145.314 276.422L145.279 277.406H145.613ZM152.404 281.051H152.527C152.645 280.836 152.771 280.6 152.908 280.342C153.049 280.084 153.178 279.816 153.295 279.539C153.412 279.262 153.51 278.982 153.588 278.701C153.67 278.416 153.711 278.139 153.711 277.869C153.711 277.693 153.691 277.527 153.652 277.371C153.613 277.211 153.545 277.059 153.447 276.914C153.525 276.852 153.613 276.809 153.711 276.785C153.809 276.758 153.906 276.744 154.004 276.744C154.195 276.744 154.338 276.805 154.432 276.926C154.529 277.043 154.578 277.207 154.578 277.418C154.578 277.613 154.545 277.824 154.479 278.051C154.412 278.273 154.326 278.5 154.221 278.73C154.119 278.961 154.008 279.188 153.887 279.41C153.766 279.633 153.652 279.84 153.547 280.031L152.439 282C152.33 282.199 152.209 282.416 152.076 282.65C151.947 282.885 151.812 283.119 151.672 283.354C151.531 283.592 151.387 283.82 151.238 284.039C151.094 284.262 150.947 284.457 150.799 284.625C150.65 284.797 150.504 284.934 150.359 285.035C150.215 285.141 150.076 285.193 149.943 285.193C149.721 285.193 149.561 285.133 149.463 285.012C149.365 284.891 149.316 284.74 149.316 284.561C149.316 284.486 149.322 284.42 149.334 284.361C149.346 284.303 149.365 284.24 149.393 284.174C149.451 284.197 149.521 284.219 149.604 284.238C149.682 284.258 149.766 284.268 149.855 284.268C150.051 284.268 150.238 284.211 150.418 284.098C150.602 283.988 150.779 283.838 150.951 283.646C151.123 283.455 151.289 283.232 151.449 282.979C151.613 282.725 151.775 282.455 151.936 282.17L150.629 278.121C150.582 277.973 150.531 277.848 150.477 277.746C150.426 277.645 150.365 277.564 150.295 277.506C150.225 277.443 150.143 277.398 150.049 277.371C149.959 277.344 149.852 277.33 149.727 277.33H149.633V277.055C149.805 277.051 149.953 277.041 150.078 277.025C150.207 277.006 150.328 276.982 150.441 276.955C150.555 276.928 150.67 276.896 150.787 276.861C150.908 276.826 151.047 276.787 151.203 276.744C151.223 276.885 151.244 277.018 151.268 277.143C151.291 277.268 151.316 277.391 151.344 277.512C151.371 277.633 151.402 277.756 151.438 277.881C151.473 278.006 151.512 278.139 151.555 278.279L152.404 281.051ZM157.854 281.666C157.955 281.658 158.045 281.65 158.123 281.643C158.201 281.635 158.273 281.627 158.34 281.619C158.406 281.611 158.471 281.605 158.533 281.602C158.596 281.598 158.662 281.594 158.732 281.59C158.752 281.07 158.77 280.557 158.785 280.049C158.805 279.541 158.822 279.055 158.838 278.59C158.854 278.125 158.869 277.691 158.885 277.289C158.9 276.887 158.914 276.531 158.926 276.223C158.938 275.914 158.945 275.66 158.949 275.461C158.957 275.262 158.961 275.133 158.961 275.074C158.961 274.906 158.947 274.77 158.92 274.664C158.896 274.559 158.859 274.477 158.809 274.418C158.762 274.355 158.701 274.312 158.627 274.289C158.553 274.262 158.469 274.24 158.375 274.225L158.117 274.189V273.85C158.203 273.865 158.307 273.881 158.428 273.896C158.529 273.908 158.652 273.918 158.797 273.926C158.945 273.934 159.119 273.938 159.318 273.938C159.518 273.938 159.736 273.932 159.975 273.92C160.217 273.904 160.482 273.881 160.771 273.85V274.189C160.67 274.197 160.58 274.205 160.502 274.213C160.424 274.221 160.352 274.229 160.285 274.236C160.223 274.24 160.16 274.244 160.098 274.248C160.035 274.252 159.969 274.256 159.898 274.26C159.879 274.779 159.859 275.295 159.84 275.807C159.824 276.314 159.807 276.801 159.787 277.266C159.771 277.727 159.756 278.16 159.74 278.566C159.729 278.969 159.717 279.324 159.705 279.633C159.693 279.941 159.684 280.195 159.676 280.395C159.672 280.594 159.67 280.721 159.67 280.775C159.67 280.947 159.682 281.086 159.705 281.191C159.732 281.297 159.77 281.381 159.816 281.443C159.867 281.502 159.93 281.545 160.004 281.572C160.078 281.6 160.162 281.619 160.256 281.631L160.508 281.666V282C160.422 281.988 160.318 281.975 160.197 281.959C160.096 281.951 159.971 281.943 159.822 281.936C159.674 281.924 159.502 281.918 159.307 281.918C159.107 281.918 158.889 281.924 158.65 281.936C158.412 281.947 158.146 281.969 157.854 282V281.666ZM163.877 276.744C164.271 276.744 164.605 276.807 164.879 276.932C165.152 277.053 165.369 277.229 165.529 277.459C165.795 277.205 166.025 277.031 166.221 276.938C166.42 276.84 166.592 276.791 166.736 276.791C166.904 276.791 167.023 276.834 167.094 276.92C167.168 277.002 167.205 277.092 167.205 277.189C167.205 277.271 167.189 277.354 167.158 277.436C167.127 277.518 167.076 277.596 167.006 277.67C166.908 277.607 166.816 277.559 166.73 277.523C166.645 277.484 166.523 277.465 166.367 277.465C166.254 277.465 166.135 277.49 166.01 277.541C165.889 277.592 165.768 277.652 165.646 277.723C165.67 277.801 165.689 277.893 165.705 277.998C165.725 278.104 165.734 278.197 165.734 278.279C165.734 278.561 165.678 278.828 165.564 279.082C165.451 279.332 165.297 279.553 165.102 279.744C164.906 279.932 164.678 280.082 164.416 280.195C164.154 280.305 163.873 280.359 163.572 280.359C163.498 280.359 163.428 280.359 163.361 280.359C163.295 280.355 163.232 280.35 163.174 280.342C163.1 280.424 163.033 280.504 162.975 280.582C162.924 280.648 162.877 280.721 162.834 280.799C162.795 280.877 162.775 280.943 162.775 280.998C162.775 281.061 162.793 281.113 162.828 281.156C162.867 281.195 162.928 281.232 163.01 281.268C163.096 281.299 163.207 281.328 163.344 281.355C163.48 281.383 163.646 281.412 163.842 281.443C164.186 281.502 164.49 281.561 164.756 281.619C165.025 281.678 165.252 281.756 165.436 281.854C165.623 281.947 165.764 282.07 165.857 282.223C165.955 282.379 166.004 282.58 166.004 282.826C166.004 283.021 165.963 283.215 165.881 283.406C165.799 283.602 165.686 283.787 165.541 283.963C165.396 284.139 165.225 284.301 165.025 284.449C164.826 284.602 164.609 284.732 164.375 284.842C164.141 284.951 163.893 285.037 163.631 285.1C163.369 285.162 163.104 285.193 162.834 285.193C162.479 285.193 162.182 285.158 161.943 285.088C161.709 285.018 161.52 284.922 161.375 284.801C161.234 284.684 161.135 284.549 161.076 284.396C161.018 284.244 160.988 284.086 160.988 283.922C160.988 283.812 161.002 283.695 161.029 283.57C161.057 283.449 161.113 283.32 161.199 283.184C161.285 283.051 161.408 282.912 161.568 282.768C161.729 282.627 161.941 282.484 162.207 282.34L162.354 282.568C162.178 282.682 162.045 282.83 161.955 283.014C161.869 283.197 161.826 283.404 161.826 283.635C161.826 283.834 161.869 284.002 161.955 284.139C162.041 284.275 162.154 284.387 162.295 284.473C162.436 284.562 162.596 284.627 162.775 284.666C162.959 284.705 163.146 284.725 163.338 284.725C163.549 284.725 163.768 284.689 163.994 284.619C164.221 284.553 164.428 284.453 164.615 284.32C164.803 284.191 164.955 284.031 165.072 283.84C165.193 283.652 165.254 283.439 165.254 283.201C165.254 283.068 165.234 282.955 165.195 282.861C165.16 282.768 165.1 282.688 165.014 282.621C164.928 282.559 164.814 282.504 164.674 282.457C164.537 282.41 164.367 282.367 164.164 282.328L162.764 282.059C162.561 282.02 162.393 281.953 162.26 281.859C162.127 281.762 162.061 281.621 162.061 281.438C162.061 281.352 162.084 281.256 162.131 281.15C162.182 281.045 162.242 280.939 162.312 280.834C162.387 280.725 162.465 280.621 162.547 280.523C162.633 280.422 162.711 280.33 162.781 280.248C162.625 280.213 162.475 280.156 162.33 280.078C162.189 279.996 162.064 279.893 161.955 279.768C161.846 279.643 161.758 279.496 161.691 279.328C161.629 279.16 161.598 278.967 161.598 278.748C161.598 278.436 161.656 278.156 161.773 277.91C161.895 277.66 162.059 277.449 162.266 277.277C162.473 277.105 162.713 276.975 162.986 276.885C163.264 276.791 163.561 276.744 163.877 276.744ZM163.637 277.078C163.449 277.078 163.283 277.119 163.139 277.201C162.994 277.279 162.873 277.387 162.775 277.523C162.678 277.656 162.604 277.809 162.553 277.98C162.502 278.152 162.477 278.332 162.477 278.52C162.477 278.699 162.498 278.879 162.541 279.059C162.588 279.234 162.658 279.393 162.752 279.533C162.85 279.674 162.971 279.787 163.115 279.873C163.264 279.959 163.441 280.002 163.648 280.002C164.012 280.002 164.295 279.875 164.498 279.621C164.701 279.367 164.803 279.023 164.803 278.59C164.803 278.426 164.779 278.256 164.732 278.08C164.689 277.9 164.619 277.736 164.521 277.588C164.428 277.439 164.307 277.318 164.158 277.225C164.014 277.127 163.84 277.078 163.637 277.078ZM169.871 277.078C169.582 277.078 169.326 277.143 169.104 277.271C168.881 277.4 168.693 277.572 168.541 277.787C168.393 278.002 168.279 278.25 168.201 278.531C168.123 278.809 168.084 279.098 168.084 279.398C168.084 279.684 168.119 279.967 168.189 280.248C168.26 280.529 168.367 280.783 168.512 281.01C168.66 281.232 168.848 281.414 169.074 281.555C169.305 281.691 169.578 281.76 169.895 281.76C170.176 281.76 170.426 281.707 170.645 281.602C170.863 281.496 171.049 281.346 171.201 281.15C171.354 280.955 171.469 280.717 171.547 280.436C171.629 280.154 171.67 279.84 171.67 279.492C171.67 279.234 171.635 278.965 171.564 278.684C171.494 278.398 171.385 278.137 171.236 277.898C171.092 277.66 170.906 277.465 170.68 277.312C170.453 277.156 170.184 277.078 169.871 277.078ZM167.223 279.709C167.223 279.338 167.289 278.975 167.422 278.619C167.555 278.264 167.746 277.947 167.996 277.67C168.246 277.393 168.551 277.17 168.91 277.002C169.27 276.83 169.678 276.744 170.135 276.744C170.568 276.744 170.938 276.805 171.242 276.926C171.547 277.047 171.795 277.213 171.986 277.424C172.178 277.631 172.316 277.873 172.402 278.15C172.492 278.428 172.537 278.723 172.537 279.035C172.537 279.457 172.463 279.855 172.314 280.23C172.166 280.605 171.961 280.934 171.699 281.215C171.438 281.492 171.131 281.713 170.779 281.877C170.428 282.037 170.049 282.117 169.643 282.117C169.174 282.117 168.783 282.051 168.471 281.918C168.162 281.781 167.914 281.602 167.727 281.379C167.543 281.156 167.412 280.9 167.334 280.611C167.26 280.322 167.223 280.021 167.223 279.709ZM175.068 276.744C175.053 276.818 175.035 276.904 175.016 277.002C175 277.096 174.982 277.193 174.963 277.295C174.947 277.396 174.932 277.498 174.916 277.6C174.9 277.697 174.887 277.787 174.875 277.869C175.078 277.662 175.275 277.488 175.467 277.348C175.658 277.203 175.836 277.086 176 276.996C176.164 276.906 176.311 276.842 176.439 276.803C176.572 276.764 176.684 276.744 176.773 276.744C176.883 276.744 176.973 276.76 177.043 276.791C177.113 276.818 177.168 276.855 177.207 276.902C177.25 276.945 177.279 276.994 177.295 277.049C177.314 277.104 177.324 277.154 177.324 277.201C177.324 277.314 177.293 277.424 177.23 277.529C177.172 277.635 177.104 277.729 177.025 277.811C176.928 277.697 176.82 277.617 176.703 277.57C176.586 277.523 176.461 277.5 176.328 277.5C176.215 277.5 176.098 277.518 175.977 277.553C175.859 277.584 175.742 277.629 175.625 277.688C175.508 277.746 175.391 277.816 175.273 277.898C175.16 277.977 175.055 278.064 174.957 278.162C174.934 278.557 174.906 278.941 174.875 279.316C174.848 279.691 174.834 280.082 174.834 280.488C174.834 280.754 174.842 280.969 174.857 281.133C174.873 281.293 174.906 281.418 174.957 281.508C175.008 281.594 175.082 281.652 175.18 281.684C175.281 281.711 175.418 281.725 175.59 281.725H175.854V282H175.742C175.375 282 175.047 282.014 174.758 282.041C174.469 282.068 174.184 282.119 173.902 282.193C173.996 281.564 174.07 280.936 174.125 280.307C174.18 279.674 174.207 279.055 174.207 278.449C174.207 278.262 174.195 278.1 174.172 277.963C174.152 277.822 174.109 277.705 174.043 277.611C173.977 277.518 173.881 277.447 173.756 277.4C173.631 277.354 173.467 277.33 173.264 277.33H173.135V277.055C173.322 277.039 173.488 277.027 173.633 277.02C173.777 277.008 173.92 276.994 174.061 276.979C174.205 276.959 174.355 276.932 174.512 276.896C174.672 276.861 174.857 276.811 175.068 276.744ZM182.592 281.736C182.826 281.736 183.045 281.701 183.248 281.631C183.455 281.557 183.635 281.451 183.787 281.314C183.939 281.178 184.059 281.012 184.145 280.816C184.234 280.617 184.279 280.393 184.279 280.143C184.279 279.904 184.223 279.688 184.109 279.492C184 279.293 183.859 279.109 183.688 278.941C183.52 278.773 183.336 278.615 183.137 278.467C182.938 278.318 182.748 278.172 182.568 278.027C182.396 277.895 182.207 277.75 182 277.594C181.793 277.434 181.598 277.258 181.414 277.066C181.234 276.875 181.082 276.664 180.957 276.434C180.836 276.203 180.775 275.947 180.775 275.666C180.775 275.525 180.789 275.379 180.816 275.227C180.844 275.07 180.891 274.92 180.957 274.775C181.027 274.627 181.117 274.488 181.227 274.359C181.34 274.227 181.48 274.111 181.648 274.014C181.816 273.912 182.014 273.832 182.24 273.773C182.467 273.715 182.73 273.686 183.031 273.686C183.414 273.686 183.783 273.717 184.139 273.779C184.494 273.838 184.801 273.906 185.059 273.984L184.93 275.748H184.596V275.59C184.596 275.441 184.58 275.281 184.549 275.109C184.518 274.934 184.449 274.773 184.344 274.629C184.238 274.48 184.084 274.357 183.881 274.26C183.682 274.162 183.412 274.113 183.072 274.113C182.869 274.113 182.684 274.143 182.516 274.201C182.352 274.256 182.211 274.336 182.094 274.441C181.977 274.543 181.885 274.668 181.818 274.816C181.756 274.965 181.725 275.131 181.725 275.314C181.725 275.557 181.771 275.771 181.865 275.959C181.963 276.143 182.086 276.309 182.234 276.457C182.387 276.605 182.555 276.744 182.738 276.873C182.922 276.998 183.1 277.123 183.271 277.248C183.529 277.436 183.775 277.623 184.01 277.811C184.248 277.994 184.457 278.189 184.637 278.396C184.816 278.6 184.959 278.818 185.064 279.053C185.174 279.287 185.229 279.545 185.229 279.826C185.229 280.154 185.154 280.461 185.006 280.746C184.857 281.031 184.658 281.279 184.408 281.49C184.162 281.701 183.879 281.867 183.559 281.988C183.238 282.109 182.908 282.17 182.568 282.17C182.154 282.17 181.76 282.137 181.385 282.07C181.01 282.004 180.684 281.928 180.406 281.842L180.547 279.984H180.91V280.189C180.91 280.354 180.93 280.527 180.969 280.711C181.008 280.891 181.086 281.057 181.203 281.209C181.324 281.361 181.494 281.488 181.713 281.59C181.936 281.688 182.229 281.736 182.592 281.736ZM186.166 281.086C186.166 280.855 186.225 280.656 186.342 280.488C186.463 280.32 186.617 280.176 186.805 280.055C186.996 279.934 187.209 279.834 187.443 279.756C187.678 279.678 187.912 279.615 188.146 279.568C188.381 279.521 188.602 279.488 188.809 279.469C189.02 279.445 189.191 279.43 189.324 279.422C189.344 279.246 189.355 279.076 189.359 278.912C189.367 278.748 189.371 278.594 189.371 278.449C189.371 278.266 189.357 278.09 189.33 277.922C189.303 277.754 189.25 277.605 189.172 277.477C189.094 277.348 188.984 277.246 188.844 277.172C188.707 277.094 188.527 277.055 188.305 277.055C188.148 277.055 188.004 277.084 187.871 277.143C187.738 277.201 187.623 277.281 187.525 277.383C187.432 277.48 187.357 277.598 187.303 277.734C187.252 277.867 187.227 278.01 187.227 278.162C187.227 278.221 187.23 278.281 187.238 278.344C187.25 278.402 187.266 278.465 187.285 278.531C187.242 278.582 187.182 278.621 187.104 278.648C187.029 278.676 186.953 278.689 186.875 278.689C186.816 278.689 186.76 278.682 186.705 278.666C186.65 278.646 186.602 278.617 186.559 278.578C186.516 278.539 186.48 278.488 186.453 278.426C186.43 278.363 186.418 278.287 186.418 278.197C186.418 277.979 186.492 277.779 186.641 277.6C186.793 277.42 186.982 277.268 187.209 277.143C187.439 277.014 187.689 276.916 187.959 276.85C188.229 276.779 188.484 276.744 188.727 276.744C189.188 276.744 189.547 276.85 189.805 277.061C190.066 277.271 190.197 277.621 190.197 278.109C190.197 278.32 190.188 278.553 190.168 278.807C190.152 279.057 190.133 279.305 190.109 279.551C190.086 279.797 190.064 280.031 190.045 280.254C190.029 280.473 190.021 280.654 190.021 280.799C190.021 281.045 190.051 281.236 190.109 281.373C190.172 281.51 190.266 281.578 190.391 281.578C190.465 281.578 190.539 281.557 190.613 281.514C190.688 281.467 190.758 281.414 190.824 281.355C190.891 281.293 190.949 281.23 191 281.168C191.051 281.102 191.092 281.051 191.123 281.016L191.34 281.197C191.203 281.389 191.076 281.545 190.959 281.666C190.842 281.783 190.73 281.877 190.625 281.947C190.52 282.014 190.418 282.059 190.32 282.082C190.223 282.105 190.127 282.117 190.033 282.117C189.889 282.117 189.764 282.088 189.658 282.029C189.553 281.975 189.465 281.9 189.395 281.807C189.328 281.713 189.275 281.605 189.236 281.484C189.201 281.363 189.182 281.238 189.178 281.109C189.1 281.238 189.008 281.363 188.902 281.484C188.797 281.605 188.674 281.713 188.533 281.807C188.393 281.9 188.232 281.975 188.053 282.029C187.873 282.088 187.672 282.117 187.449 282.117C187.184 282.117 186.967 282.082 186.799 282.012C186.631 281.945 186.5 281.861 186.406 281.76C186.312 281.654 186.248 281.541 186.213 281.42C186.182 281.299 186.166 281.188 186.166 281.086ZM187.754 281.689C188.004 281.689 188.217 281.635 188.393 281.525C188.572 281.412 188.721 281.264 188.838 281.08C188.959 280.896 189.055 280.688 189.125 280.453C189.199 280.215 189.254 279.971 189.289 279.721C189.156 279.732 189.008 279.746 188.844 279.762C188.68 279.777 188.514 279.803 188.346 279.838C188.182 279.869 188.02 279.914 187.859 279.973C187.703 280.027 187.562 280.1 187.438 280.189C187.316 280.279 187.219 280.389 187.145 280.518C187.07 280.643 187.033 280.793 187.033 280.969C187.033 281.117 187.057 281.238 187.104 281.332C187.154 281.422 187.217 281.494 187.291 281.549C187.365 281.604 187.443 281.641 187.525 281.66C187.607 281.68 187.684 281.689 187.754 281.689ZM197.645 282C197.438 282.008 197.246 282.014 197.07 282.018C196.895 282.025 196.727 282.035 196.566 282.047C196.41 282.059 196.256 282.074 196.104 282.094C195.955 282.117 195.805 282.15 195.652 282.193C195.688 281.967 195.723 281.711 195.758 281.426C195.797 281.141 195.832 280.854 195.863 280.564C195.898 280.271 195.926 279.986 195.945 279.709C195.965 279.432 195.975 279.188 195.975 278.977C195.975 278.773 195.965 278.574 195.945 278.379C195.93 278.184 195.885 278.01 195.811 277.857C195.74 277.701 195.631 277.576 195.482 277.482C195.334 277.389 195.129 277.342 194.867 277.342C194.719 277.342 194.568 277.369 194.416 277.424C194.264 277.475 194.115 277.541 193.971 277.623C193.83 277.701 193.695 277.789 193.566 277.887C193.441 277.984 193.332 278.076 193.238 278.162C193.227 278.35 193.213 278.549 193.197 278.76C193.186 278.967 193.174 279.174 193.162 279.381C193.154 279.584 193.146 279.783 193.139 279.979C193.131 280.17 193.127 280.348 193.127 280.512C193.127 280.766 193.133 280.971 193.145 281.127C193.16 281.283 193.191 281.406 193.238 281.496C193.289 281.586 193.363 281.646 193.461 281.678C193.559 281.709 193.691 281.725 193.859 281.725H194.152V282C193.73 282 193.363 282.014 193.051 282.041C192.738 282.068 192.441 282.119 192.16 282.193C192.25 281.623 192.32 281.037 192.371 280.436C192.422 279.83 192.447 279.211 192.447 278.578C192.447 278.426 192.441 278.275 192.43 278.127C192.418 277.979 192.381 277.846 192.318 277.729C192.256 277.607 192.16 277.512 192.031 277.441C191.902 277.367 191.721 277.33 191.486 277.33H191.375V277.055C191.551 277.047 191.713 277.039 191.861 277.031C192.01 277.02 192.156 277.004 192.301 276.984C192.449 276.961 192.604 276.932 192.764 276.896C192.924 276.857 193.105 276.807 193.309 276.744C193.273 276.92 193.236 277.107 193.197 277.307C193.162 277.502 193.135 277.682 193.115 277.846C193.549 277.479 193.949 277.203 194.316 277.02C194.684 276.836 195.057 276.744 195.436 276.744C195.557 276.744 195.693 276.764 195.846 276.803C196.002 276.838 196.148 276.912 196.285 277.025C196.422 277.139 196.537 277.299 196.631 277.506C196.729 277.709 196.777 277.979 196.777 278.314C196.777 278.533 196.768 278.762 196.748 279C196.732 279.238 196.713 279.475 196.689 279.709C196.67 279.939 196.65 280.164 196.631 280.383C196.615 280.598 196.607 280.793 196.607 280.969C196.607 281.125 196.619 281.252 196.643 281.35C196.67 281.447 196.711 281.525 196.766 281.584C196.824 281.639 196.898 281.676 196.988 281.695C197.082 281.715 197.195 281.725 197.328 281.725H197.645V282ZM198.969 276.861C198.977 276.604 198.984 276.338 198.992 276.064C199.004 275.787 199.01 275.498 199.01 275.197L199.883 275.004C199.848 275.258 199.816 275.545 199.789 275.865C199.766 276.182 199.742 276.514 199.719 276.861C200.105 276.861 200.434 276.85 200.703 276.826C200.977 276.803 201.203 276.775 201.383 276.744L201.119 277.307H200.738C200.551 277.307 200.373 277.307 200.205 277.307C200.037 277.307 199.861 277.303 199.678 277.295C199.658 277.557 199.641 277.816 199.625 278.074C199.609 278.328 199.596 278.574 199.584 278.812C199.572 279.047 199.562 279.268 199.555 279.475C199.551 279.682 199.549 279.863 199.549 280.02C199.549 280.273 199.561 280.488 199.584 280.664C199.611 280.84 199.654 280.982 199.713 281.092C199.771 281.201 199.85 281.281 199.947 281.332C200.045 281.379 200.168 281.402 200.316 281.402C200.484 281.402 200.664 281.354 200.855 281.256C201.047 281.154 201.215 281.01 201.359 280.822L201.553 281.039C201.424 281.191 201.291 281.334 201.154 281.467C201.018 281.596 200.875 281.709 200.727 281.807C200.582 281.9 200.434 281.975 200.281 282.029C200.129 282.088 199.973 282.117 199.812 282.117C199.602 282.117 199.428 282.078 199.291 282C199.158 281.926 199.053 281.822 198.975 281.689C198.896 281.557 198.842 281.4 198.811 281.221C198.783 281.041 198.77 280.846 198.77 280.635C198.77 280.229 198.791 279.748 198.834 279.193C198.877 278.635 198.918 277.99 198.957 277.26C198.793 277.248 198.629 277.234 198.465 277.219C198.301 277.199 198.123 277.174 197.932 277.143L197.955 276.861H198.969ZM204.746 277.078C204.457 277.078 204.201 277.143 203.979 277.271C203.756 277.4 203.568 277.572 203.416 277.787C203.268 278.002 203.154 278.25 203.076 278.531C202.998 278.809 202.959 279.098 202.959 279.398C202.959 279.684 202.994 279.967 203.064 280.248C203.135 280.529 203.242 280.783 203.387 281.01C203.535 281.232 203.723 281.414 203.949 281.555C204.18 281.691 204.453 281.76 204.77 281.76C205.051 281.76 205.301 281.707 205.52 281.602C205.738 281.496 205.924 281.346 206.076 281.15C206.229 280.955 206.344 280.717 206.422 280.436C206.504 280.154 206.545 279.84 206.545 279.492C206.545 279.234 206.51 278.965 206.439 278.684C206.369 278.398 206.26 278.137 206.111 277.898C205.967 277.66 205.781 277.465 205.555 277.312C205.328 277.156 205.059 277.078 204.746 277.078ZM202.098 279.709C202.098 279.338 202.164 278.975 202.297 278.619C202.43 278.264 202.621 277.947 202.871 277.67C203.121 277.393 203.426 277.17 203.785 277.002C204.145 276.83 204.553 276.744 205.01 276.744C205.443 276.744 205.812 276.805 206.117 276.926C206.422 277.047 206.67 277.213 206.861 277.424C207.053 277.631 207.191 277.873 207.277 278.15C207.367 278.428 207.412 278.723 207.412 279.035C207.412 279.457 207.338 279.855 207.189 280.23C207.041 280.605 206.836 280.934 206.574 281.215C206.312 281.492 206.006 281.713 205.654 281.877C205.303 282.037 204.924 282.117 204.518 282.117C204.049 282.117 203.658 282.051 203.346 281.918C203.037 281.781 202.789 281.602 202.602 281.379C202.418 281.156 202.287 280.9 202.209 280.611C202.135 280.322 202.098 280.021 202.098 279.709ZM211.021 278.303C211.033 278.236 211.043 278.172 211.051 278.109C211.062 278.043 211.068 277.98 211.068 277.922C211.068 277.668 211.002 277.465 210.869 277.312C210.74 277.156 210.535 277.078 210.254 277.078C210.098 277.078 209.957 277.102 209.832 277.148C209.707 277.191 209.6 277.252 209.51 277.33C209.424 277.404 209.357 277.494 209.311 277.6C209.264 277.701 209.24 277.809 209.24 277.922C209.24 278.094 209.279 278.238 209.357 278.355C209.439 278.469 209.543 278.568 209.668 278.654C209.793 278.74 209.932 278.818 210.084 278.889C210.236 278.959 210.387 279.033 210.535 279.111C210.68 279.189 210.826 279.273 210.975 279.363C211.127 279.449 211.264 279.551 211.385 279.668C211.51 279.785 211.609 279.92 211.684 280.072C211.762 280.225 211.801 280.402 211.801 280.605C211.801 280.789 211.764 280.971 211.689 281.15C211.615 281.33 211.496 281.492 211.332 281.637C211.168 281.781 210.955 281.898 210.693 281.988C210.432 282.074 210.115 282.117 209.744 282.117C209.521 282.117 209.316 282.098 209.129 282.059C208.945 282.02 208.787 281.963 208.654 281.889C208.521 281.814 208.418 281.723 208.344 281.613C208.27 281.504 208.232 281.381 208.232 281.244C208.232 281.033 208.303 280.867 208.443 280.746C208.584 280.621 208.762 280.555 208.977 280.547V280.658C208.977 281.014 209.074 281.295 209.27 281.502C209.469 281.705 209.732 281.807 210.061 281.807C210.182 281.807 210.301 281.787 210.418 281.748C210.535 281.709 210.641 281.65 210.734 281.572C210.828 281.494 210.902 281.395 210.957 281.273C211.016 281.148 211.045 281.002 211.045 280.834C211.045 280.666 211.002 280.52 210.916 280.395C210.83 280.27 210.721 280.16 210.588 280.066C210.459 279.973 210.318 279.891 210.166 279.82C210.014 279.746 209.871 279.676 209.738 279.609L209.533 279.504C209.381 279.426 209.242 279.348 209.117 279.27C208.996 279.191 208.893 279.105 208.807 279.012C208.721 278.914 208.654 278.803 208.607 278.678C208.561 278.549 208.537 278.396 208.537 278.221C208.537 278.018 208.566 277.842 208.625 277.693C208.688 277.541 208.77 277.41 208.871 277.301C208.973 277.191 209.09 277.102 209.223 277.031C209.355 276.957 209.492 276.9 209.633 276.861C209.773 276.818 209.914 276.789 210.055 276.773C210.195 276.754 210.324 276.744 210.441 276.744C210.621 276.744 210.795 276.762 210.963 276.797C211.135 276.828 211.287 276.879 211.42 276.949C211.553 277.02 211.658 277.111 211.736 277.225C211.818 277.338 211.859 277.475 211.859 277.635C211.859 277.721 211.842 277.805 211.807 277.887C211.771 277.965 211.719 278.035 211.648 278.098C211.582 278.16 211.496 278.211 211.391 278.25C211.285 278.285 211.162 278.303 211.021 278.303Z" fill="black"/>
</svg>
